<?xml version="1.0" standalone="no"?>
<!DOCTYPE svg PUBLIC "-//W3C//DTD SVG 20010904//EN"
 "http://www.w3.org/TR/2001/REC-SVG-20010904/DTD/svg10.dtd">
<svg version="1.0" xmlns="http://www.w3.org/2000/svg"
 width="1785.000000pt" height="1785.000000pt" viewBox="0 0 1785.000000 1785.000000"
 preserveAspectRatio="xMidYMid meet">
<metadata>
Created by potrace 1.14, written by Peter Selinger 2001-2017
</metadata>
<g transform="translate(0.000000,1785.000000) scale(0.100000,-0.100000)"
fill="#000000" stroke="none">
<path d="M659 11374 c-160 -29 -302 -97 -400 -193 -57 -56 -99 -115 -99 -138
0 -7 21 -23 47 -35 77 -35 132 -76 159 -120 39 -61 41 -122 9 -258 -34 -144
-35 -151 -40 -175 -3 -11 -23 -99 -45 -195 -22 -96 -42 -184 -44 -195 -2 -11
-50 -218 -106 -460 -56 -242 -103 -449 -106 -460 -2 -11 -8 -43 -14 -71 -25
-118 -12 -256 31 -348 45 -98 117 -161 209 -184 125 -31 366 16 440 87 9 9 54
50 101 91 46 41 113 102 149 135 36 33 101 92 144 130 43 39 90 81 105 95 15
14 64 59 110 100 109 98 119 107 231 210 52 48 124 113 160 145 36 32 110 99
164 149 54 50 107 98 116 106 17 15 173 156 194 175 6 6 56 50 111 100 55 49
113 101 128 115 16 15 59 43 96 63 84 45 100 40 84 -30 -11 -47 -67 -148 -282
-512 -54 -91 -107 -180 -117 -198 -11 -18 -93 -157 -183 -310 -264 -449 -425
-722 -445 -756 -60 -104 -192 -328 -212 -359 -13 -21 -24 -40 -24 -43 0 -2
-15 -28 -34 -57 -157 -247 -264 -485 -302 -675 -2 -13 -7 -35 -10 -50 -3 -16
-7 -86 -9 -158 -4 -150 10 -229 55 -322 75 -152 279 -265 480 -267 184 -2 274
38 560 245 78 57 251 192 282 222 7 6 40 34 73 62 105 87 267 242 872 831 164
160 337 329 385 375 47 46 202 197 343 334 142 138 294 285 339 329 44 43 209
203 365 355 653 636 727 705 946 876 201 157 379 263 518 310 138 46 201 39
285 -32 26 -22 71 -56 101 -77 51 -34 55 -36 65 -19 7 11 11 85 11 188 -1 193
-17 274 -86 444 -121 295 -297 435 -543 433 -184 -2 -377 -71 -568 -204 -84
-58 -392 -319 -598 -506 -181 -164 -333 -324 -536 -562 -129 -151 -154 -178
-399 -435 -22 -23 -92 -97 -155 -165 -63 -67 -128 -137 -145 -155 -16 -17 -75
-81 -130 -140 -55 -60 -111 -120 -125 -135 -14 -14 -68 -73 -120 -129 -52 -57
-113 -122 -135 -146 -59 -62 -248 -266 -276 -296 -13 -15 -69 -75 -124 -134
-55 -59 -113 -122 -129 -139 -133 -145 -288 -301 -318 -322 -48 -34 -71 -27
-64 20 4 27 289 707 383 916 18 38 67 153 120 277 7 18 14 36 15 40 1 5 17 38
35 76 18 37 33 70 33 73 0 5 77 185 120 279 10 22 30 68 44 102 14 35 37 86
50 115 161 355 352 809 371 883 55 213 4 398 -127 462 -114 57 -253 44 -374
-33 -40 -25 -621 -498 -644 -524 -3 -3 -41 -35 -85 -70 -44 -36 -82 -67 -85
-70 -3 -3 -115 -98 -250 -210 -264 -220 -287 -240 -304 -255 -6 -6 -65 -56
-131 -110 -66 -55 -127 -106 -135 -114 -31 -30 -150 -102 -177 -107 -43 -8
-66 15 -68 67 -2 51 18 165 39 224 7 22 31 94 51 160 20 66 65 208 100 315
104 319 123 405 123 548 0 222 -97 356 -289 398 -57 12 -287 11 -360 -2z"/>
<path d="M6851 9760 c-4 -3 -7 -95 -6 -205 l0 -200 120 -1 c66 -1 127 -2 135
-3 13 -1 15 -104 15 -864 l0 -862 -136 -3 -135 -3 0 -204 c-1 -201 0 -205 20
-205 31 -1 812 -1 941 0 l111 0 -1 205 0 205 -122 0 -123 0 -2 1072 -3 1072
-403 0 c-222 1 -407 -1 -411 -4z"/>
<path d="M8071 9760 c-4 -3 -7 -95 -7 -205 l1 -200 130 0 c72 0 132 -3 135 -6
3 -4 5 -394 5 -866 l0 -858 -136 -3 -135 -3 0 -204 0 -205 56 0 c518 -2 1004
0 1009 5 3 4 6 96 6 206 l0 199 -122 0 -123 0 0 1070 c0 849 -3 1070 -12 1071
-47 4 -801 3 -807 -1z"/>
<path d="M10158 9036 c-1 -2 -49 -6 -106 -10 -326 -20 -555 -136 -684 -348
-21 -34 -36 -63 -34 -65 2 -2 14 -6 27 -8 13 -3 35 -7 49 -10 14 -2 41 -7 60
-10 19 -3 78 -14 130 -24 183 -36 172 -36 215 3 80 74 201 112 323 102 148
-12 250 -90 276 -211 9 -42 11 -203 3 -211 -4 -4 -37 7 -74 24 -114 51 -169
64 -298 67 -377 9 -632 -156 -712 -460 -13 -52 -9 -224 7 -286 44 -167 162
-297 325 -358 140 -53 341 -62 475 -21 77 23 192 76 243 112 15 11 31 18 34
14 3 -3 6 -33 5 -66 0 -58 1 -60 26 -60 26 -1 488 -1 702 0 l105 0 0 205 0
205 -140 0 -140 0 -1 393 c0 268 -5 414 -13 462 -46 258 -159 411 -360 490
-54 21 -90 30 -191 50 -14 3 -70 8 -125 11 -55 3 -105 7 -112 9 -6 2 -13 2
-15 1z m67 -1061 c66 -22 110 -42 159 -74 l41 -26 -1 -79 c-2 -70 -4 -81 -25
-98 -138 -110 -217 -151 -304 -156 -147 -10 -226 55 -241 197 -10 91 30 191
89 223 71 38 192 44 282 13z"/>
<path d="M14279 9036 c-2 -2 -38 -7 -80 -10 -254 -21 -503 -158 -659 -363 -68
-89 -136 -234 -161 -341 -6 -26 -13 -56 -16 -67 -14 -51 -12 -303 3 -380 83
-438 450 -708 959 -707 282 1 510 83 684 247 59 55 151 167 151 183 0 6 -37
22 -82 37 -46 15 -92 30 -103 35 -49 20 -212 70 -228 70 -10 0 -39 -21 -65
-46 -59 -57 -160 -118 -231 -138 -102 -30 -232 -17 -328 33 -101 51 -194 188
-218 321 -4 19 -9 43 -11 53 -5 16 30 17 646 17 l652 0 -6 73 c-15 171 -34
271 -76 390 -125 354 -410 572 -764 586 -28 1 -53 4 -56 6 -4 3 -9 3 -11 1z
m127 -416 c54 -23 128 -91 161 -147 27 -47 67 -163 58 -171 -3 -3 -165 -6
-361 -6 l-356 -1 7 45 c10 65 42 145 79 193 86 113 267 152 412 87z"/>
<path d="M16218 9036 c-1 -2 -48 -6 -103 -10 -116 -7 -149 -12 -228 -32 -131
-32 -274 -106 -354 -182 -63 -61 -157 -202 -133 -202 15 0 17 0 50 -10 17 -5
54 -12 83 -15 28 -4 55 -9 58 -11 3 -2 21 -6 40 -9 19 -3 71 -13 116 -21 l81
-15 69 49 c37 27 88 57 113 67 62 25 202 29 272 9 104 -31 178 -115 194 -219
9 -61 9 -183 0 -192 -3 -4 -28 4 -54 16 -121 60 -190 75 -342 75 -140 1 -213
-10 -307 -46 -197 -73 -339 -228 -377 -411 -17 -76 -12 -245 8 -308 26 -82 67
-152 125 -209 123 -123 266 -175 481 -174 146 0 279 40 409 121 29 19 56 31
59 28 3 -3 6 -33 5 -65 l-1 -60 32 0 c81 -1 631 -1 711 0 l90 0 0 205 0 205
-140 0 -140 0 -1 398 c-1 366 -3 405 -23 500 -12 57 -25 111 -30 120 -5 9 -21
44 -37 77 -33 71 -137 180 -204 214 -114 59 -233 88 -395 97 -55 3 -105 7
-112 9 -6 2 -13 2 -15 1z m85 -1067 c65 -22 162 -73 173 -91 4 -6 7 -44 7 -83
-1 -70 -2 -74 -34 -104 -47 -43 -166 -117 -218 -136 -85 -30 -198 -15 -252 33
-68 61 -86 229 -35 311 14 22 38 48 52 58 69 45 194 50 307 12z"/>
<path d="M5449 9027 c-2 -3 -29 -7 -60 -10 -174 -19 -367 -101 -469 -200 -66
-64 -158 -192 -147 -203 2 -3 15 -7 28 -9 13 -3 35 -7 49 -10 14 -2 41 -7 60
-10 19 -3 55 -9 80 -15 25 -5 85 -16 133 -25 l89 -16 43 36 c94 77 181 106
304 101 168 -6 275 -89 296 -229 9 -61 10 -185 2 -194 -4 -3 -37 8 -74 25
-117 54 -183 67 -333 66 -197 -1 -323 -36 -455 -130 -93 -65 -162 -154 -197
-252 -28 -80 -29 -85 -32 -196 -4 -121 6 -170 51 -266 139 -292 563 -397 908
-223 39 20 82 44 97 54 14 11 30 19 35 19 4 0 7 -29 6 -65 l-1 -65 56 0 c58
-1 593 -1 712 0 l65 0 0 205 0 205 -140 0 -140 0 -1 388 c-1 463 -10 539 -80
687 -35 73 -43 84 -111 152 -85 86 -176 128 -368 169 -34 7 -399 17 -406 11z
m233 -1058 c67 -22 163 -73 175 -92 4 -6 6 -44 6 -84 -2 -68 -4 -74 -35 -103
-46 -42 -165 -116 -217 -135 -82 -28 -202 -14 -253 32 -51 45 -79 176 -56 261
13 48 51 98 89 118 73 38 185 39 291 3z"/>
<path d="M12128 9015 c-2 -2 -28 -6 -58 -9 -167 -20 -338 -99 -466 -216 -142
-130 -253 -331 -281 -511 -4 -30 -8 -126 -7 -214 1 -139 4 -173 27 -256 37
-137 87 -240 157 -324 204 -241 504 -345 904 -311 44 4 82 9 85 11 3 1 23 6
44 9 51 8 150 42 207 71 102 52 201 142 291 265 45 61 109 164 109 175 0 1
-53 26 -117 55 -65 29 -160 73 -211 97 -52 23 -95 43 -96 43 -2 0 -20 -25 -41
-55 -136 -198 -383 -280 -569 -190 -56 27 -136 111 -168 175 -55 115 -75 283
-48 405 26 117 110 231 207 283 68 36 96 43 179 43 120 0 213 -36 295 -113 45
-42 119 -146 119 -168 0 -6 67 -10 200 -10 l200 0 0 360 0 360 -190 0 -190 0
0 -70 c0 -38 -2 -70 -4 -70 -2 0 -29 15 -60 34 -97 59 -235 108 -341 122 -52
7 -173 13 -177 9z"/>
<path d="M2953 6798 c-45 -33 -66 -113 -44 -171 19 -49 92 -95 176 -112 22 -5
47 -10 55 -12 62 -13 1036 -16 7345 -19 3911 -1 7151 -4 7200 -5 68 -1 99 2
123 15 36 19 38 27 18 84 -13 35 -12 43 1 61 34 49 -50 121 -171 148 -51 11
-1183 13 -7101 8 -3872 -3 -7098 -7 -7170 -11 -110 -5 -145 -2 -222 15 -121
27 -170 27 -210 -1z"/>
</g>
</svg>
